<svg width="84" height="17" viewBox="0 0 84 17" fill="none" xmlns="http://www.w3.org/2000/svg">
<path d="M11.5391 16L9.76172 11.459H4.03906L2.28125 16H0.601562L6.24609 1.66406H7.64258L13.2578 16H11.5391ZM9.24414 9.96484L7.58398 5.54102C7.36914 4.98112 7.14779 4.29427 6.91992 3.48047C6.77669 4.10547 6.57161 4.79232 6.30469 5.54102L4.625 9.96484H9.24414ZM19.957 5.12109C21.3633 5.12109 22.4538 5.60286 23.2285 6.56641C24.0098 7.52344 24.4004 8.88086 24.4004 10.6387C24.4004 12.3965 24.0065 13.7637 23.2188 14.7402C22.4375 15.7103 21.3503 16.1953 19.957 16.1953C19.2604 16.1953 18.6224 16.0684 18.043 15.8145C17.4701 15.554 16.9883 15.1569 16.5977 14.623H16.4805L16.1387 16H14.9766V0.804688H16.5977V4.49609C16.5977 5.32292 16.5716 6.0651 16.5195 6.72266H16.5977C17.3529 5.65495 18.4727 5.12109 19.957 5.12109ZM19.7227 6.47852C18.6159 6.47852 17.8184 6.79753 17.3301 7.43555C16.8418 8.06706 16.5977 9.13477 16.5977 10.6387C16.5977 12.1426 16.8483 13.2201 17.3496 13.8711C17.8509 14.5156 18.6549 14.8379 19.7617 14.8379C20.7578 14.8379 21.5 14.4766 21.9883 13.7539C22.4766 13.0247 22.7207 11.9798 22.7207 10.6191C22.7207 9.22591 22.4766 8.1875 21.9883 7.50391C21.5 6.82031 20.7448 6.47852 19.7227 6.47852ZM36.4805 10.6387C36.4805 12.3835 36.041 13.7474 35.1621 14.7305C34.2832 15.707 33.069 16.1953 31.5195 16.1953C30.5625 16.1953 29.7129 15.9707 28.9707 15.5215C28.2285 15.0723 27.6556 14.4277 27.252 13.5879C26.8483 12.748 26.6465 11.765 26.6465 10.6387C26.6465 8.89388 27.0827 7.53646 27.9551 6.56641C28.8275 5.58984 30.0384 5.10156 31.5879 5.10156C33.0853 5.10156 34.2734 5.59961 35.1523 6.5957C36.0378 7.5918 36.4805 8.93945 36.4805 10.6387ZM28.3262 10.6387C28.3262 12.0059 28.5996 13.0475 29.1465 13.7637C29.6934 14.4798 30.4974 14.8379 31.5586 14.8379C32.6198 14.8379 33.4238 14.4831 33.9707 13.7734C34.5241 13.0573 34.8008 12.0124 34.8008 10.6387C34.8008 9.27799 34.5241 8.24609 33.9707 7.54297C33.4238 6.83333 32.6133 6.47852 31.5391 6.47852C30.4779 6.47852 29.6771 6.82682 29.1367 7.52344C28.5964 8.22005 28.3262 9.25846 28.3262 10.6387ZM40.8555 5.29688V12.2402C40.8555 13.1126 41.054 13.7637 41.4512 14.1934C41.8483 14.623 42.4701 14.8379 43.3164 14.8379C44.4362 14.8379 45.2533 14.5319 45.7676 13.9199C46.2884 13.3079 46.5488 12.3086 46.5488 10.9219V5.29688H48.1699V16H46.832L46.5977 14.5645H46.5098C46.1777 15.0918 45.7155 15.4954 45.123 15.7754C44.5371 16.0553 43.8665 16.1953 43.1113 16.1953C41.8092 16.1953 40.8327 15.8861 40.1816 15.2676C39.5371 14.6491 39.2148 13.6595 39.2148 12.2988V5.29688H40.8555ZM55.0742 14.8574C55.3607 14.8574 55.6374 14.8379 55.9043 14.7988C56.1712 14.7533 56.3828 14.7077 56.5391 14.6621V15.9023C56.3633 15.987 56.1029 16.0553 55.7578 16.1074C55.4193 16.166 55.1133 16.1953 54.8398 16.1953C52.7695 16.1953 51.7344 15.1048 51.7344 12.9238V6.55664H50.2012V5.77539L51.7344 5.10156L52.418 2.81641H53.3555V5.29688H56.4609V6.55664H53.3555V12.8555C53.3555 13.5 53.5085 13.9948 53.8145 14.3398C54.1204 14.6849 54.5404 14.8574 55.0742 14.8574ZM65.4062 5.29688V12.2402C65.4062 13.1126 65.6048 13.7637 66.002 14.1934C66.3991 14.623 67.0208 14.8379 67.8672 14.8379C68.987 14.8379 69.804 14.5319 70.3184 13.9199C70.8392 13.3079 71.0996 12.3086 71.0996 10.9219V5.29688H72.7207V16H71.3828L71.1484 14.5645H71.0605C70.7285 15.0918 70.2663 15.4954 69.6738 15.7754C69.0879 16.0553 68.4173 16.1953 67.6621 16.1953C66.36 16.1953 65.3835 15.8861 64.7324 15.2676C64.0879 14.6491 63.7656 13.6595 63.7656 12.2988V5.29688H65.4062ZM83.0723 13.0801C83.0723 14.0762 82.7012 14.8444 81.959 15.3848C81.2168 15.9251 80.1751 16.1953 78.834 16.1953C77.4147 16.1953 76.3079 15.9707 75.5137 15.5215V14.0176C76.028 14.278 76.5781 14.4831 77.1641 14.6328C77.7565 14.7826 78.3262 14.8574 78.873 14.8574C79.7194 14.8574 80.3704 14.724 80.8262 14.457C81.2819 14.1836 81.5098 13.7702 81.5098 13.2168C81.5098 12.8001 81.3275 12.4453 80.9629 12.1523C80.6048 11.8529 79.9017 11.5013 78.8535 11.0977C77.8574 10.7266 77.1478 10.4043 76.7246 10.1309C76.3079 9.85091 75.9954 9.53516 75.7871 9.18359C75.5853 8.83203 75.4844 8.41211 75.4844 7.92383C75.4844 7.05143 75.8392 6.36458 76.5488 5.86328C77.2585 5.35547 78.2318 5.10156 79.4688 5.10156C80.6211 5.10156 81.7474 5.33594 82.8477 5.80469L82.2715 7.12305C81.1973 6.68034 80.224 6.45898 79.3516 6.45898C78.5833 6.45898 78.0039 6.57943 77.6133 6.82031C77.2227 7.0612 77.0273 7.39323 77.0273 7.81641C77.0273 8.10286 77.099 8.34701 77.2422 8.54883C77.3919 8.75065 77.6296 8.94271 77.9551 9.125C78.2806 9.30729 78.9056 9.57096 79.8301 9.91602C81.0996 10.3783 81.9557 10.8438 82.3984 11.3125C82.8477 11.7812 83.0723 12.3704 83.0723 13.0801Z" fill="white"/>
</svg>
