<svg width="480" height="480" viewBox="0 0 480 480" fill="none" xmlns="http://www.w3.org/2000/svg">
<path d="M91.712 278.4C83.312 274.344 73.936 272 64 272C28.712 272 0 300.712 0 336C0 371.288 28.712 400 64 400C86.144 400 105.688 388.688 117.184 371.544L177.64 401.808C176.6 406.376 176 411.12 176 416C176 451.288 204.712 480 240 480C275.288 480 304 451.288 304 416C304 402.736 299.944 390.408 293 380.176L377.952 291.352C388.608 299.256 401.744 304 416 304C451.288 304 480 275.288 480 240C480 204.712 451.288 176 416 176C401.232 176 387.664 181.072 376.816 189.504L290.496 103.184C298.928 92.336 304 78.768 304 64C304 28.712 275.288 0 240 0C204.712 0 176 28.712 176 64C176 68.864 176.592 73.592 177.632 78.152L120.896 98.824C110.256 78.176 88.776 64 64 64C28.712 64 0 92.712 0 128C0 163.288 28.712 192 64 192C73.104 192 81.752 190.064 89.6 186.616L119.048 236.176L91.712 278.4ZM64 384C37.528 384 16 362.472 16 336C16 309.528 37.528 288 64 288C90.472 288 112 309.528 112 336C112 362.472 90.472 384 64 384ZM124.312 357.208C126.656 350.56 128 343.44 128 336C128 316.376 119.104 298.808 105.16 287.064L128.168 251.528L197.536 368.256C191.696 373.456 186.808 379.68 183.184 386.68L124.312 357.208ZM240 128C254.768 128 268.336 122.928 279.184 114.496L365.512 200.824C360.336 207.48 356.464 215.168 354.232 223.536L303.976 216.624C303.968 216.416 304 216.208 304 216C304 180.712 275.288 152 240 152C217.856 152 198.304 163.312 186.816 180.456L177.272 175.688L212.296 121.6C220.688 125.656 230.064 128 240 128ZM248 352.552V279.44C274 276.176 295.152 257.28 301.776 232.464L352.032 239.376C352.032 239.584 352 239.792 352 240C352 255.28 357.392 269.304 366.36 280.32L282.36 368.152C272.944 359.808 261.096 354.2 248 352.552V352.552ZM240 168C266.472 168 288 189.528 288 216C288 242.472 266.472 264 240 264C213.528 264 192 242.472 192 216C192 189.528 213.528 168 240 168V168ZM179.688 194.792C177.344 201.44 176 208.56 176 216C176 248.576 200.48 275.488 232 279.448V352.56C224.416 353.512 217.256 355.784 210.736 359.152L137.872 236.536L168.52 189.208L179.688 194.792ZM240 464C213.528 464 192 442.472 192 416C192 389.528 213.528 368 240 368C266.472 368 288 389.528 288 416C288 442.472 266.472 464 240 464ZM416 192C442.472 192 464 213.528 464 240C464 266.472 442.472 288 416 288C389.528 288 368 266.472 368 240C368 213.528 389.528 192 416 192ZM240 16C266.472 16 288 37.528 288 64C288 90.472 266.472 112 240 112C213.528 112 192 90.472 192 64C192 37.528 213.528 16 240 16ZM183.104 93.176C187.016 100.768 192.368 107.48 198.84 112.936L162.872 168.488L124.312 149.208C126.656 142.56 128 135.44 128 128C128 123.136 127.408 118.408 126.368 113.848L183.104 93.176ZM16 128C16 101.528 37.528 80 64 80C90.472 80 112 101.528 112 128C112 154.472 90.472 176 64 176C37.528 176 16 154.472 16 128ZM103.32 178.392C108.68 174.2 113.384 169.208 117.184 163.544L154.12 182.008L128.752 221.184L103.32 178.392Z" fill="#54CA95"/>
</svg>
