<svg width="481" height="481" viewBox="0 0 481 481" fill="none" xmlns="http://www.w3.org/2000/svg">
<path d="M448.104 415.995C441.027 416.018 434.158 418.386 428.571 422.729C422.983 427.071 418.993 433.143 417.224 439.995H392.104C389.982 439.995 387.947 439.152 386.447 437.652C384.947 436.152 384.104 434.117 384.104 431.995V375.995H401.224C403.171 383.536 407.802 390.109 414.248 394.48C420.694 398.851 428.513 400.721 436.24 399.74C443.966 398.759 451.07 394.993 456.218 389.149C461.367 383.305 464.208 375.784 464.208 367.995C464.208 360.206 461.367 352.685 456.218 346.841C451.07 340.997 443.966 337.232 436.24 336.25C428.513 335.269 420.694 337.139 414.248 341.51C407.802 345.882 403.171 352.454 401.224 359.995H384.104V239.995H408.104C427.199 239.995 445.513 232.409 459.016 218.907C472.518 205.404 480.104 187.091 480.104 167.995C480.104 148.9 472.518 130.586 459.016 117.083C445.513 103.581 427.199 95.9951 408.104 95.9951H391.624C390.256 83.5068 385.637 71.5957 378.226 61.4511C370.816 51.3065 360.874 43.2832 349.393 38.1825C337.912 33.0817 325.294 31.0818 312.799 32.3825C300.304 33.6833 288.368 38.2391 278.184 45.5951C264.005 27.6327 244.981 14.1048 223.359 6.61015C201.737 -0.884497 178.421 -2.03259 156.167 3.30157C133.914 8.63572 113.652 20.2291 97.7776 36.7117C81.9029 53.1942 71.0785 73.8768 66.5839 96.3151C48.0259 97.7293 30.7381 106.28 18.3518 120.172C5.9656 134.064 -0.555115 152.215 0.159399 170.813C0.873913 189.411 8.76805 207.009 22.1836 219.909C35.5992 232.809 53.4921 240.009 72.1039 239.995H96.1039V343.995H78.9839C77.0367 336.454 72.406 329.882 65.9598 325.51C59.5136 321.139 51.6944 319.269 43.9679 320.25C36.2413 321.232 29.138 324.997 23.9893 330.841C18.8406 336.685 16 344.206 16 351.995C16 359.784 18.8406 367.305 23.9893 373.149C29.138 378.993 36.2413 382.759 43.9679 383.74C51.6944 384.721 59.5136 382.851 65.9598 378.48C72.406 374.109 77.0367 367.536 78.9839 359.995H96.1039V431.995C96.1039 434.117 95.261 436.152 93.7607 437.652C92.2604 439.152 90.2256 439.995 88.1039 439.995H62.9839C61.0367 432.454 56.406 425.882 49.9598 421.51C43.5136 417.139 35.6944 415.269 27.9679 416.25C20.2413 417.232 13.138 420.997 7.98929 426.841C2.84058 432.685 0 440.206 0 447.995C0 455.784 2.84058 463.305 7.98929 469.149C13.138 474.993 20.2413 478.759 27.9679 479.74C35.6944 480.721 43.5136 478.851 49.9598 474.48C56.406 470.109 61.0367 463.536 62.9839 455.995H88.1039C94.4632 455.976 100.557 453.441 105.053 448.945C109.55 444.448 112.085 438.354 112.104 431.995V359.995H176.104C182.463 359.976 188.557 357.441 193.053 352.945C197.55 348.448 200.085 342.354 200.104 335.995V239.995H232.104V417.115C224.563 419.062 217.99 423.693 213.619 430.139C209.248 436.585 207.378 444.405 208.359 452.131C209.34 459.858 213.106 466.961 218.95 472.11C224.794 477.258 232.315 480.099 240.104 480.099C247.892 480.099 255.414 477.258 261.258 472.11C267.102 466.961 270.867 459.858 271.849 452.131C272.83 444.405 270.96 436.585 266.589 430.139C262.217 423.693 255.645 419.062 248.104 417.115V239.995H280.104V351.995C280.123 358.354 282.658 364.448 287.154 368.945C291.651 373.441 297.745 375.976 304.104 375.995H368.104V431.995C368.123 438.354 370.658 444.448 375.154 448.945C379.651 453.441 385.745 455.976 392.104 455.995H417.224C418.729 461.778 421.825 467.022 426.161 471.134C430.497 475.245 435.899 478.058 441.754 479.253C447.608 480.449 453.681 479.978 459.281 477.896C464.882 475.813 469.786 472.202 473.438 467.473C477.089 462.743 479.341 457.084 479.938 451.138C480.535 445.193 479.452 439.2 476.814 433.838C474.176 428.477 470.087 423.963 465.012 420.809C459.937 417.655 454.079 415.987 448.104 415.995V415.995ZM432.104 351.995C435.268 351.995 438.362 352.933 440.993 354.692C443.624 356.45 445.675 358.949 446.886 361.872C448.097 364.796 448.414 368.013 447.796 371.117C447.179 374.22 445.655 377.071 443.418 379.309C441.18 381.546 438.329 383.07 435.225 383.688C432.122 384.305 428.905 383.988 425.981 382.777C423.057 381.566 420.558 379.515 418.8 376.884C417.042 374.253 416.104 371.16 416.104 367.995C416.117 363.756 417.806 359.693 420.804 356.695C423.802 353.698 427.864 352.008 432.104 351.995V351.995ZM48.1039 367.995C44.9394 367.995 41.8459 367.057 39.2147 365.299C36.5836 363.541 34.5328 361.042 33.3218 358.118C32.1108 355.194 31.7939 351.977 32.4113 348.874C33.0287 345.77 34.5525 342.919 36.7902 340.681C39.0278 338.444 41.8787 336.92 44.9824 336.303C48.0861 335.685 51.3032 336.002 54.2268 337.213C57.1504 338.424 59.6493 340.475 61.4074 343.106C63.1655 345.737 64.1039 348.831 64.1039 351.995C64.0912 356.235 62.4014 360.297 59.4036 363.295C56.4057 366.293 52.3434 367.982 48.1039 367.995ZM32.1039 463.995C28.9394 463.995 25.8459 463.057 23.2147 461.299C20.5836 459.541 18.5328 457.042 17.3218 454.118C16.1108 451.194 15.7939 447.977 16.4113 444.874C17.0287 441.77 18.5525 438.919 20.7902 436.681C23.0278 434.444 25.8787 432.92 28.9824 432.303C32.0861 431.685 35.3032 432.002 38.2268 433.213C41.1504 434.424 43.6493 436.475 45.4074 439.106C47.1655 441.737 48.1039 444.831 48.1039 447.995C48.0912 452.235 46.4014 456.297 43.4036 459.295C40.4057 462.293 36.3434 463.982 32.1039 463.995ZM184.104 335.995C184.104 338.117 183.261 340.152 181.761 341.652C180.26 343.152 178.226 343.995 176.104 343.995H112.104V239.995H184.104V335.995ZM256.104 447.995C256.104 451.16 255.165 454.253 253.407 456.884C251.649 459.515 249.15 461.566 246.227 462.777C243.303 463.988 240.086 464.305 236.982 463.688C233.879 463.07 231.028 461.546 228.79 459.309C226.553 457.071 225.029 454.22 224.411 451.117C223.794 448.013 224.111 444.796 225.322 441.872C226.533 438.949 228.584 436.45 231.215 434.692C233.846 432.933 236.939 431.995 240.104 431.995C244.343 432.008 248.406 433.698 251.404 436.695C254.401 439.693 256.091 443.756 256.104 447.995ZM368.104 359.995H304.104C301.982 359.995 299.947 359.152 298.447 357.652C296.947 356.152 296.104 354.117 296.104 351.995V239.995H368.104V359.995ZM72.1039 223.995C57.2517 223.995 43.0079 218.095 32.5059 207.593C22.0038 197.091 16.1039 182.847 16.1039 167.995C16.1039 153.143 22.0038 138.899 32.5059 128.397C43.0079 117.895 57.2517 111.995 72.1039 111.995H73.0639C82.8928 112.185 92.4995 114.953 100.923 120.021C109.347 125.089 116.292 132.28 121.064 140.875L135.144 133.115C129.744 123.477 122.218 115.197 113.138 108.903C104.059 102.61 93.6639 98.469 82.7439 96.7951C88.2982 72.4976 102.394 51.0029 122.464 36.2246C142.535 21.4464 167.245 14.3674 192.096 16.2768C216.947 18.1862 240.286 28.9569 257.863 46.6277C275.44 64.2986 286.087 87.6943 287.864 112.555L303.784 111.435C302.455 92.8351 296.783 74.8057 287.224 58.7951C297.527 51.3377 310.062 47.6097 322.765 48.2245C335.469 48.8393 347.585 53.7602 357.12 62.1777C366.655 70.5951 373.04 82.0075 375.226 94.5371C377.411 107.067 375.266 119.967 369.144 131.115L383.064 138.875C387.661 130.567 390.57 121.432 391.624 111.995H408.104C422.956 111.995 437.2 117.895 447.702 128.397C458.204 138.899 464.104 153.143 464.104 167.995C464.104 182.847 458.204 197.091 447.702 207.593C437.2 218.095 422.956 223.995 408.104 223.995H72.1039ZM448.104 463.995C444.939 463.995 441.846 463.057 439.215 461.299C436.584 459.541 434.533 457.042 433.322 454.118C432.111 451.194 431.794 447.977 432.411 444.874C433.029 441.77 434.553 438.919 436.79 436.681C439.028 434.444 441.879 432.92 444.982 432.303C448.086 431.685 451.303 432.002 454.227 433.213C457.15 434.424 459.649 436.475 461.407 439.106C463.166 441.737 464.104 444.831 464.104 447.995C464.091 452.235 462.401 456.297 459.404 459.295C456.406 462.293 452.343 463.982 448.104 463.995V463.995Z" fill="#54CA95"/>
<path d="M48.104 167.995C48.104 161.63 50.6326 155.525 55.1334 151.025C59.6343 146.524 65.7388 143.995 72.104 143.995V127.995C61.4953 127.995 51.3212 132.209 43.8197 139.711C36.3183 147.212 32.104 157.386 32.104 167.995C32.104 178.604 36.3183 188.778 43.8197 196.279C51.3212 203.781 61.4953 207.995 72.104 207.995H120.104V191.995H72.104C65.7388 191.995 59.6343 189.467 55.1334 184.966C50.6326 180.465 48.104 174.36 48.104 167.995Z" fill="#54CA95"/>
<path d="M192.024 135.115C191.827 133.155 190.906 131.34 189.441 130.023C187.977 128.706 186.074 127.983 184.104 127.995H152.104C150.135 127.983 148.231 128.706 146.767 130.023C145.302 131.34 144.381 133.155 144.184 135.115L136.184 207.115L152.024 208.875L154.824 183.995H181.384L184.184 208.875L200.024 207.115L192.024 135.115ZM156.584 167.995L159.304 143.995H176.904L179.624 167.995H156.584Z" fill="#54CA95"/>
<path d="M272.104 127.995H224.104C221.982 127.995 219.947 128.838 218.447 130.338C216.947 131.839 216.104 133.873 216.104 135.995V207.995H232.104V175.995H272.104C274.226 175.995 276.261 175.152 277.761 173.652C279.261 172.152 280.104 170.117 280.104 167.995V135.995C280.104 133.873 279.261 131.839 277.761 130.338C276.261 128.838 274.226 127.995 272.104 127.995ZM264.104 159.995H232.104V143.995H264.104V159.995Z" fill="#54CA95"/>
<path d="M328.104 143.995V191.995H344.104V207.995H296.104V191.995H312.104V143.995H296.104V127.995H344.104V143.995H328.104Z" fill="#54CA95"/>
</svg>
