<svg width="337" height="119" viewBox="0 0 337 119" fill="none" xmlns="http://www.w3.org/2000/svg">
<path d="M22.0488 38H1.49219V2.30664H22.0488V8.50781H9.06055V16.3447H21.1455V22.5459H9.06055V31.75H22.0488V38ZM46.2676 38L44.8271 34.2891H44.6318C43.3786 35.8678 42.0846 36.9665 40.75 37.585C39.4316 38.1872 37.7064 38.4883 35.5742 38.4883C32.9538 38.4883 30.8867 37.7396 29.373 36.2422C27.8757 34.7448 27.127 32.6126 27.127 29.8457C27.127 26.9486 28.1361 24.8164 30.1543 23.4492C32.1888 22.0658 35.2487 21.3008 39.334 21.1543L44.0703 21.0078V19.8115C44.0703 17.0446 42.6543 15.6611 39.8223 15.6611C37.6413 15.6611 35.0778 16.3203 32.1318 17.6387L29.666 12.6094C32.8073 10.9655 36.2904 10.1436 40.1152 10.1436C43.7773 10.1436 46.585 10.9411 48.5381 12.5361C50.4912 14.1312 51.4678 16.5563 51.4678 19.8115V38H46.2676ZM44.0703 25.3535L41.1895 25.4512C39.0247 25.5163 37.4134 25.9069 36.3555 26.623C35.2975 27.3392 34.7686 28.4297 34.7686 29.8945C34.7686 31.9941 35.973 33.0439 38.3818 33.0439C40.1071 33.0439 41.4824 32.5475 42.5078 31.5547C43.5495 30.5618 44.0703 29.2435 44.0703 27.5996V25.3535ZM78.2012 29.8945C78.2012 32.694 77.2246 34.8262 75.2715 36.291C73.3346 37.7559 70.4294 38.4883 66.5557 38.4883C64.57 38.4883 62.8773 38.3499 61.4775 38.0732C60.0778 37.8128 58.7676 37.4222 57.5469 36.9014V30.749C58.9303 31.4001 60.4847 31.9453 62.21 32.3848C63.9515 32.8242 65.4814 33.0439 66.7998 33.0439C69.5016 33.0439 70.8525 32.2627 70.8525 30.7002C70.8525 30.1143 70.6735 29.6423 70.3154 29.2842C69.9574 28.9098 69.3389 28.4948 68.46 28.0391C67.5811 27.5671 66.4092 27.0218 64.9443 26.4033C62.8447 25.5244 61.2985 24.7106 60.3057 23.9619C59.3291 23.2132 58.613 22.3587 58.1572 21.3984C57.7178 20.4219 57.498 19.2256 57.498 17.8096C57.498 15.3844 58.4339 13.5127 60.3057 12.1943C62.1937 10.8597 64.863 10.1924 68.3135 10.1924C71.6012 10.1924 74.7995 10.9085 77.9082 12.3408L75.6621 17.7119C74.2949 17.126 73.0173 16.6458 71.8291 16.2715C70.641 15.8971 69.4284 15.71 68.1914 15.71C65.9941 15.71 64.8955 16.304 64.8955 17.4922C64.8955 18.1595 65.2454 18.7373 65.9453 19.2256C66.6615 19.7139 68.2158 20.4382 70.6084 21.3984C72.7406 22.2611 74.3031 23.0667 75.2959 23.8154C76.2887 24.5641 77.0212 25.4268 77.4932 26.4033C77.9652 27.3799 78.2012 28.5436 78.2012 29.8945ZM80.1055 10.7051H88.2598L93.4111 26.0615C93.8506 27.3962 94.1517 28.9749 94.3145 30.7979H94.4609C94.64 29.1214 94.9899 27.5426 95.5107 26.0615L100.564 10.7051H108.548L97 41.4912C95.9421 44.3395 94.4284 46.4717 92.459 47.8877C90.5059 49.3037 88.2191 50.0117 85.5986 50.0117C84.3128 50.0117 83.0514 49.8734 81.8145 49.5967V43.6885C82.7096 43.9001 83.6862 44.0059 84.7441 44.0059C86.0625 44.0059 87.21 43.599 88.1865 42.7852C89.1794 41.9876 89.9525 40.7751 90.5059 39.1475L90.9453 37.8047L80.1055 10.7051ZM140.652 10.1924C143.875 10.1924 146.398 11.4538 148.221 13.9766C150.044 16.4831 150.955 19.9255 150.955 24.3037C150.955 28.8122 150.011 32.3034 148.123 34.7773C146.251 37.2513 143.696 38.4883 140.457 38.4883C137.251 38.4883 134.736 37.3245 132.913 34.9971H132.4L131.155 38H125.467V0.0117188H132.913V8.84961C132.913 9.97266 132.815 11.7712 132.62 14.2451H132.913C134.655 11.5433 137.234 10.1924 140.652 10.1924ZM138.26 16.1494C136.421 16.1494 135.078 16.7191 134.231 17.8584C133.385 18.9814 132.946 20.8451 132.913 23.4492V24.2549C132.913 27.1846 133.344 29.2842 134.207 30.5537C135.086 31.8232 136.469 32.458 138.357 32.458C139.887 32.458 141.1 31.7581 141.995 30.3584C142.907 28.9424 143.362 26.8916 143.362 24.2061C143.362 21.5205 142.907 19.5104 141.995 18.1758C141.084 16.8249 139.839 16.1494 138.26 16.1494ZM176.443 38L175.442 34.5088H175.052C174.254 35.7783 173.123 36.763 171.658 37.4629C170.193 38.1465 168.525 38.4883 166.653 38.4883C163.447 38.4883 161.03 37.6338 159.402 35.9248C157.775 34.1995 156.961 31.7256 156.961 28.5029V10.7051H164.407V26.6475C164.407 28.6169 164.757 30.098 165.457 31.0908C166.157 32.0674 167.272 32.5557 168.802 32.5557C170.885 32.5557 172.391 31.8639 173.318 30.4805C174.246 29.0807 174.71 26.7695 174.71 23.5469V10.7051H182.156V38H176.443ZM189.651 3.64941C189.651 1.22428 191.002 0.0117188 193.704 0.0117188C196.406 0.0117188 197.757 1.22428 197.757 3.64941C197.757 4.80501 197.415 5.70833 196.731 6.35938C196.064 6.99414 195.055 7.31152 193.704 7.31152C191.002 7.31152 189.651 6.09082 189.651 3.64941ZM197.415 38H189.969V10.7051H197.415V38ZM224.295 29.8945C224.295 32.694 223.318 34.8262 221.365 36.291C219.428 37.7559 216.523 38.4883 212.649 38.4883C210.664 38.4883 208.971 38.3499 207.571 38.0732C206.172 37.8128 204.861 37.4222 203.641 36.9014V30.749C205.024 31.4001 206.578 31.9453 208.304 32.3848C210.045 32.8242 211.575 33.0439 212.894 33.0439C215.595 33.0439 216.946 32.2627 216.946 30.7002C216.946 30.1143 216.767 29.6423 216.409 29.2842C216.051 28.9098 215.433 28.4948 214.554 28.0391C213.675 27.5671 212.503 27.0218 211.038 26.4033C208.938 25.5244 207.392 24.7106 206.399 23.9619C205.423 23.2132 204.707 22.3587 204.251 21.3984C203.812 20.4219 203.592 19.2256 203.592 17.8096C203.592 15.3844 204.528 13.5127 206.399 12.1943C208.287 10.8597 210.957 10.1924 214.407 10.1924C217.695 10.1924 220.893 10.9085 224.002 12.3408L221.756 17.7119C220.389 17.126 219.111 16.6458 217.923 16.2715C216.735 15.8971 215.522 15.71 214.285 15.71C212.088 15.71 210.989 16.304 210.989 17.4922C210.989 18.1595 211.339 18.7373 212.039 19.2256C212.755 19.7139 214.31 20.4382 216.702 21.3984C218.834 22.2611 220.397 23.0667 221.39 23.8154C222.382 24.5641 223.115 25.4268 223.587 26.4033C224.059 27.3799 224.295 28.5436 224.295 29.8945ZM255.301 38H247.854V22.0576C247.854 20.0882 247.505 18.6152 246.805 17.6387C246.105 16.6458 244.99 16.1494 243.46 16.1494C241.377 16.1494 239.871 16.8493 238.943 18.249C238.016 19.6325 237.552 21.9355 237.552 25.1582V38H230.105V10.7051H235.794L236.795 14.1963H237.21C238.04 12.8779 239.179 11.8851 240.628 11.2178C242.093 10.5342 243.753 10.1924 245.608 10.1924C248.782 10.1924 251.191 11.055 252.835 12.7803C254.479 14.4893 255.301 16.9632 255.301 20.2021V38ZM274.271 15.4902C272.692 15.4902 271.455 15.9948 270.56 17.0039C269.664 17.9967 269.152 19.4128 269.021 21.252H279.471C279.438 19.4128 278.958 17.9967 278.03 17.0039C277.103 15.9948 275.849 15.4902 274.271 15.4902ZM275.32 38.4883C270.926 38.4883 267.492 37.2757 265.018 34.8506C262.544 32.4255 261.307 28.9912 261.307 24.5479C261.307 19.9743 262.446 16.4424 264.725 13.9521C267.02 11.4456 270.185 10.1924 274.222 10.1924C278.079 10.1924 281.082 11.291 283.23 13.4883C285.379 15.6855 286.453 18.721 286.453 22.5947V26.208H268.851C268.932 28.3239 269.559 29.9759 270.73 31.1641C271.902 32.3522 273.546 32.9463 275.662 32.9463C277.306 32.9463 278.86 32.7754 280.325 32.4336C281.79 32.0918 283.32 31.5465 284.915 30.7979V36.5596C283.613 37.2106 282.221 37.6908 280.74 38C279.259 38.3255 277.452 38.4883 275.32 38.4883ZM311.551 29.8945C311.551 32.694 310.574 34.8262 308.621 36.291C306.684 37.7559 303.779 38.4883 299.905 38.4883C297.92 38.4883 296.227 38.3499 294.827 38.0732C293.427 37.8128 292.117 37.4222 290.896 36.9014V30.749C292.28 31.4001 293.834 31.9453 295.56 32.3848C297.301 32.8242 298.831 33.0439 300.149 33.0439C302.851 33.0439 304.202 32.2627 304.202 30.7002C304.202 30.1143 304.023 29.6423 303.665 29.2842C303.307 28.9098 302.688 28.4948 301.81 28.0391C300.931 27.5671 299.759 27.0218 298.294 26.4033C296.194 25.5244 294.648 24.7106 293.655 23.9619C292.679 23.2132 291.963 22.3587 291.507 21.3984C291.067 20.4219 290.848 19.2256 290.848 17.8096C290.848 15.3844 291.784 13.5127 293.655 12.1943C295.543 10.8597 298.213 10.1924 301.663 10.1924C304.951 10.1924 308.149 10.9085 311.258 12.3408L309.012 17.7119C307.645 17.126 306.367 16.6458 305.179 16.2715C303.991 15.8971 302.778 15.71 301.541 15.71C299.344 15.71 298.245 16.304 298.245 17.4922C298.245 18.1595 298.595 18.7373 299.295 19.2256C300.011 19.7139 301.565 20.4382 303.958 21.3984C306.09 22.2611 307.653 23.0667 308.646 23.8154C309.638 24.5641 310.371 25.4268 310.843 26.4033C311.315 27.3799 311.551 28.5436 311.551 29.8945ZM336.404 29.8945C336.404 32.694 335.428 34.8262 333.475 36.291C331.538 37.7559 328.632 38.4883 324.759 38.4883C322.773 38.4883 321.08 38.3499 319.681 38.0732C318.281 37.8128 316.971 37.4222 315.75 36.9014V30.749C317.133 31.4001 318.688 31.9453 320.413 32.3848C322.155 32.8242 323.685 33.0439 325.003 33.0439C327.705 33.0439 329.056 32.2627 329.056 30.7002C329.056 30.1143 328.877 29.6423 328.519 29.2842C328.16 28.9098 327.542 28.4948 326.663 28.0391C325.784 27.5671 324.612 27.0218 323.147 26.4033C321.048 25.5244 319.502 24.7106 318.509 23.9619C317.532 23.2132 316.816 22.3587 316.36 21.3984C315.921 20.4219 315.701 19.2256 315.701 17.8096C315.701 15.3844 316.637 13.5127 318.509 12.1943C320.397 10.8597 323.066 10.1924 326.517 10.1924C329.804 10.1924 333.003 10.9085 336.111 12.3408L333.865 17.7119C332.498 17.126 331.22 16.6458 330.032 16.2715C328.844 15.8971 327.632 15.71 326.395 15.71C324.197 15.71 323.099 16.304 323.099 17.4922C323.099 18.1595 323.449 18.7373 324.148 19.2256C324.865 19.7139 326.419 20.4382 328.812 21.3984C330.944 22.2611 332.506 23.0667 333.499 23.8154C334.492 24.5641 335.224 25.4268 335.696 26.4033C336.168 27.3799 336.404 28.5436 336.404 29.8945ZM16.0918 78.1924C19.3145 78.1924 21.8372 79.4538 23.6602 81.9766C25.4831 84.4831 26.3945 87.9255 26.3945 92.3037C26.3945 96.8122 25.4505 100.303 23.5625 102.777C21.6908 105.251 19.1354 106.488 15.8965 106.488C12.6901 106.488 10.1755 105.325 8.35254 102.997H7.83984L6.59473 106H0.90625V68.0117H8.35254V76.8496C8.35254 77.9727 8.25488 79.7712 8.05957 82.2451H8.35254C10.0941 79.5433 12.6738 78.1924 16.0918 78.1924ZM13.6992 84.1494C11.86 84.1494 10.5173 84.7191 9.6709 85.8584C8.82454 86.9814 8.38509 88.8451 8.35254 91.4492V92.2549C8.35254 95.1846 8.78385 97.2842 9.64648 98.5537C10.5254 99.8232 11.9089 100.458 13.7969 100.458C15.3268 100.458 16.5394 99.7581 17.4346 98.3584C18.346 96.9424 18.8018 94.8916 18.8018 92.2061C18.8018 89.5205 18.346 87.5104 17.4346 86.1758C16.5231 84.8249 15.278 84.1494 13.6992 84.1494ZM49.8809 106L48.4404 102.289H48.2451C46.9919 103.868 45.6979 104.966 44.3633 105.585C43.0449 106.187 41.3197 106.488 39.1875 106.488C36.5671 106.488 34.5 105.74 32.9863 104.242C31.4889 102.745 30.7402 100.613 30.7402 97.8457C30.7402 94.9486 31.7493 92.8164 33.7676 91.4492C35.8021 90.0658 38.862 89.3008 42.9473 89.1543L47.6836 89.0078V87.8115C47.6836 85.0446 46.2676 83.6611 43.4355 83.6611C41.2546 83.6611 38.6911 84.3203 35.7451 85.6387L33.2793 80.6094C36.4206 78.9655 39.9036 78.1436 43.7285 78.1436C47.3906 78.1436 50.1982 78.9411 52.1514 80.5361C54.1045 82.1312 55.0811 84.5563 55.0811 87.8115V106H49.8809ZM47.6836 93.3535L44.8027 93.4512C42.638 93.5163 41.0267 93.9069 39.9688 94.623C38.9108 95.3392 38.3818 96.4297 38.3818 97.8945C38.3818 99.9941 39.5863 101.044 41.9951 101.044C43.7204 101.044 45.0957 100.548 46.1211 99.5547C47.1628 98.5618 47.6836 97.2435 47.6836 95.5996V93.3535ZM87.9668 106H80.5205V90.0576C80.5205 88.0882 80.1706 86.6152 79.4707 85.6387C78.7708 84.6458 77.6559 84.1494 76.126 84.1494C74.0426 84.1494 72.5371 84.8493 71.6094 86.249C70.6816 87.6325 70.2178 89.9355 70.2178 93.1582V106H62.7715V78.7051H68.46L69.4609 82.1963H69.876C70.7061 80.8779 71.8454 79.8851 73.2939 79.2178C74.7588 78.5342 76.4189 78.1924 78.2744 78.1924C81.4482 78.1924 83.8571 79.055 85.501 80.7803C87.1449 82.4893 87.9668 84.9632 87.9668 88.2021V106ZM102.786 91.1562L106.033 87.0059L113.675 78.7051H122.073L111.233 90.5459L122.732 106H114.139L106.277 94.9404L103.079 97.5039V106H95.6328V68.0117H103.079V84.9551L102.688 91.1562H102.786ZM126.321 71.6494C126.321 69.2243 127.672 68.0117 130.374 68.0117C133.076 68.0117 134.427 69.2243 134.427 71.6494C134.427 72.805 134.085 73.7083 133.401 74.3594C132.734 74.9941 131.725 75.3115 130.374 75.3115C127.672 75.3115 126.321 74.0908 126.321 71.6494ZM134.085 106H126.639V78.7051H134.085V106ZM167.117 106H159.671V90.0576C159.671 88.0882 159.321 86.6152 158.621 85.6387C157.921 84.6458 156.806 84.1494 155.276 84.1494C153.193 84.1494 151.688 84.8493 150.76 86.249C149.832 87.6325 149.368 89.9355 149.368 93.1582V106H141.922V78.7051H147.61L148.611 82.1963H149.026C149.856 80.8779 150.996 79.8851 152.444 79.2178C153.909 78.5342 155.569 78.1924 157.425 78.1924C160.599 78.1924 163.007 79.055 164.651 80.7803C166.295 82.4893 167.117 84.9632 167.117 88.2021V106ZM198.538 78.7051V82.4893L194.266 83.5879C195.047 84.8086 195.438 86.1758 195.438 87.6895C195.438 90.6191 194.412 92.9059 192.361 94.5498C190.327 96.1774 187.495 96.9912 183.865 96.9912L182.522 96.918L181.424 96.7959C180.659 97.3818 180.276 98.0329 180.276 98.749C180.276 99.8232 181.644 100.36 184.378 100.36H189.017C192.011 100.36 194.29 101.003 195.853 102.289C197.431 103.575 198.221 105.463 198.221 107.953C198.221 111.143 196.886 113.617 194.217 115.375C191.564 117.133 187.747 118.012 182.767 118.012C178.958 118.012 176.045 117.344 174.026 116.01C172.024 114.691 171.023 112.836 171.023 110.443C171.023 108.799 171.536 107.424 172.562 106.317C173.587 105.211 175.092 104.421 177.078 103.949C176.313 103.624 175.646 103.095 175.076 102.362C174.507 101.614 174.222 100.824 174.222 99.9941C174.222 98.9525 174.523 98.0898 175.125 97.4062C175.727 96.7064 176.598 96.0228 177.737 95.3555C176.305 94.737 175.166 93.7441 174.319 92.377C173.489 91.0098 173.074 89.3984 173.074 87.543C173.074 84.5645 174.043 82.2614 175.979 80.6338C177.916 79.0062 180.683 78.1924 184.28 78.1924C185.045 78.1924 185.949 78.2656 186.99 78.4121C188.048 78.5423 188.724 78.64 189.017 78.7051H198.538ZM177.469 109.857C177.469 110.883 177.957 111.688 178.934 112.274C179.926 112.86 181.31 113.153 183.084 113.153C185.753 113.153 187.845 112.787 189.358 112.055C190.872 111.322 191.629 110.321 191.629 109.052C191.629 108.026 191.181 107.318 190.286 106.928C189.391 106.537 188.007 106.342 186.136 106.342H182.278C180.911 106.342 179.764 106.659 178.836 107.294C177.924 107.945 177.469 108.799 177.469 109.857ZM180.179 87.6406C180.179 89.1217 180.512 90.2936 181.18 91.1562C181.863 92.0189 182.897 92.4502 184.28 92.4502C185.68 92.4502 186.705 92.0189 187.356 91.1562C188.007 90.2936 188.333 89.1217 188.333 87.6406C188.333 84.3529 186.982 82.709 184.28 82.709C181.546 82.709 180.179 84.3529 180.179 87.6406Z" fill="white"/>
</svg>
