<svg width="120" height="116" viewBox="0 0 120 116" fill="none" xmlns="http://www.w3.org/2000/svg">
<path d="M50.5674 116H42.6127C41.9023 116 41.2211 115.699 40.7188 115.165C40.2165 114.63 39.9343 113.904 39.9343 113.148C39.9343 112.391 40.2165 111.666 40.7188 111.131C41.2211 110.596 41.9023 110.295 42.6127 110.295H50.5674C51.2778 110.295 51.959 110.596 52.4613 111.131C52.9636 111.666 53.2458 112.391 53.2458 113.148C53.2458 113.904 52.9636 114.63 52.4613 115.165C51.959 115.699 51.2778 116 50.5674 116Z" fill="#54CA95"/>
<path d="M114.669 116H85.8989C85.445 116 85.0097 115.825 84.6888 115.515C84.3678 115.204 84.1875 114.782 84.1875 114.343C84.1875 113.903 84.3678 113.482 84.6888 113.171C85.0097 112.86 85.445 112.686 85.8989 112.686H114.669C115.123 112.686 115.558 112.511 115.879 112.2C116.2 111.89 116.38 111.468 116.38 111.029V4.97143C116.38 4.53193 116.2 4.11043 115.879 3.79965C115.558 3.48888 115.123 3.31429 114.669 3.31429H5.13443C4.68051 3.31429 4.24519 3.48888 3.92423 3.79965C3.60327 4.11043 3.42295 4.53193 3.42295 4.97143V111.029C3.42295 111.468 3.60327 111.89 3.92423 112.2C4.24519 112.511 4.68051 112.686 5.13443 112.686H39.9116C40.3655 112.686 40.8008 112.86 41.1218 113.171C41.4428 113.482 41.6231 113.903 41.6231 114.343C41.6231 114.782 41.4428 115.204 41.1218 115.515C40.8008 115.825 40.3655 116 39.9116 116H5.13443C3.77269 116 2.46673 115.476 1.50384 114.544C0.540947 113.612 0 112.347 0 111.029V4.97143C0 3.65292 0.540947 2.38842 1.50384 1.4561C2.46673 0.523774 3.77269 0 5.13443 0H114.669C116.031 0 117.337 0.523774 118.299 1.4561C119.262 2.38842 119.803 3.65292 119.803 4.97143V111.029C119.803 112.347 119.262 113.612 118.299 114.544C117.337 115.476 116.031 116 114.669 116Z" fill="#54CA95"/>
<path d="M24.2944 116H17.5417C16.9241 116 16.3318 115.699 15.8952 115.165C15.4585 114.63 15.2131 113.904 15.2131 113.148C15.2131 112.391 15.4585 111.666 15.8952 111.131C16.3318 110.596 16.9241 110.295 17.5417 110.295H24.2944C24.912 110.295 25.5043 110.596 25.941 111.131C26.3776 111.666 26.623 112.391 26.623 113.148C26.623 113.904 26.3776 114.63 25.941 115.165C25.5043 115.699 24.912 116 24.2944 116Z" fill="#54CA95"/>
<path d="M118.092 28.5246H1.71148C1.25756 28.5246 0.822243 28.4244 0.501279 28.2461C0.180316 28.0678 0 27.8259 0 27.5737C0 27.3216 0.180316 27.0797 0.501279 26.9014C0.822243 26.7231 1.25756 26.6229 1.71148 26.6229H118.092C118.546 26.6229 118.981 26.7231 119.302 26.9014C119.623 27.0797 119.803 27.3216 119.803 27.5737C119.803 27.8259 119.623 28.0678 119.302 28.2461C118.981 28.4244 118.546 28.5246 118.092 28.5246Z" fill="#54CA95"/>
<path d="M103.638 20.918C102.321 20.9177 101.035 20.527 99.9403 19.7955C98.846 19.0639 97.9932 18.0243 97.4898 16.8081C96.9863 15.5919 96.8547 14.2537 97.1118 12.9627C97.3688 11.6718 98.0028 10.486 98.9337 9.55535C99.8646 8.62471 101.051 7.99099 102.342 7.73433C103.633 7.47766 104.971 7.60957 106.187 8.11338C107.403 8.61719 108.442 9.47027 109.174 10.5648C109.905 11.6593 110.295 12.946 110.295 14.2623C110.293 16.0272 109.591 17.7193 108.343 18.9671C107.095 20.215 105.403 20.9166 103.638 20.918V20.918ZM103.638 11.2317C103.038 11.2321 102.452 11.4101 101.954 11.7433C101.456 12.0766 101.068 12.55 100.839 13.1038C100.61 13.6576 100.55 14.2669 100.667 14.8547C100.784 15.4424 101.073 15.9823 101.497 16.4059C101.921 16.8296 102.461 17.118 103.049 17.2348C103.637 17.3516 104.246 17.2915 104.8 17.0621C105.353 16.8326 105.826 16.4442 106.159 15.9458C106.492 15.4475 106.67 14.8616 106.67 14.2623C106.669 13.4585 106.349 12.688 105.781 12.1198C105.212 11.5516 104.441 11.2322 103.638 11.2317V11.2317Z" fill="#54CA95"/>
<path d="M86.5246 20.918C85.2083 20.918 83.9214 20.5277 82.8269 19.7964C81.7324 19.065 80.8793 18.0255 80.3755 16.8093C79.8718 15.5932 79.74 14.2549 79.9968 12.9638C80.2536 11.6728 80.8875 10.4868 81.8183 9.55599C82.7491 8.62517 83.9351 7.99127 85.2262 7.73446C86.5173 7.47765 87.8555 7.60945 89.0717 8.11321C90.2878 8.61697 91.3273 9.47005 92.0587 10.5646C92.79 11.6591 93.1804 12.9459 93.1804 14.2623C93.178 16.0268 92.476 17.7183 91.2283 18.966C89.9806 20.2136 88.2891 20.9156 86.5246 20.918V20.918ZM86.5246 11.2317C85.9252 11.2317 85.3393 11.4094 84.8409 11.7424C84.3425 12.0755 83.9541 12.5488 83.7247 13.1025C83.4953 13.6563 83.4353 14.2657 83.5523 14.8535C83.6692 15.4414 83.9578 15.9814 84.3817 16.4053C84.8055 16.8291 85.3455 17.1177 85.9334 17.2347C86.5213 17.3516 87.1306 17.2916 87.6844 17.0622C88.2382 16.8328 88.7115 16.4444 89.0445 15.946C89.3775 15.4476 89.5552 14.8617 89.5552 14.2623C89.5543 13.4588 89.2347 12.6885 88.6665 12.1204C88.0984 11.5523 87.3281 11.2327 86.5246 11.2317V11.2317Z" fill="#54CA95"/>
<path d="M69.4081 20.918C68.0918 20.9177 66.8051 20.527 65.7108 19.7955C64.6165 19.0639 63.7638 18.0243 63.2603 16.8081C62.7568 15.5919 62.6252 14.2537 62.8823 12.9627C63.1393 11.6718 63.7733 10.486 64.7042 9.55535C65.6351 8.62471 66.8211 7.99099 68.1121 7.73433C69.4031 7.47766 70.7413 7.60957 71.9573 8.11338C73.1734 8.61719 74.2128 9.47027 74.9441 10.5648C75.6753 11.6593 76.0656 12.946 76.0656 14.2623C76.0637 16.0272 75.3616 17.7193 74.1134 18.9671C72.8653 20.215 71.173 20.9166 69.4081 20.918ZM69.4081 11.2317C68.8088 11.2321 68.223 11.4101 67.7249 11.7433C67.2267 12.0766 66.8386 12.55 66.6095 13.1038C66.3804 13.6576 66.3206 14.2669 66.4377 14.8547C66.5549 15.4424 66.8437 15.9823 67.2676 16.4059C67.6915 16.8296 68.2315 17.118 68.8193 17.2348C69.4071 17.3516 70.0164 17.2915 70.5701 17.0621C71.1237 16.8326 71.5969 16.4442 71.9299 15.9458C72.2628 15.4475 72.4405 14.8616 72.4405 14.2623C72.4395 13.4585 72.1197 12.688 71.5511 12.1198C70.9826 11.5516 70.2119 11.2322 69.4081 11.2317V11.2317Z" fill="#54CA95"/>
<path d="M53.4281 17.1147H11.2278C10.7718 17.1147 10.3344 16.9144 10.0119 16.5578C9.68946 16.2011 9.5083 15.7174 9.5083 15.2131C9.5083 14.7088 9.68946 14.2251 10.0119 13.8684C10.3344 13.5118 10.7718 13.3115 11.2278 13.3115H53.4281C53.8842 13.3115 54.3215 13.5118 54.644 13.8684C54.9665 14.2251 55.1476 14.7088 55.1476 15.2131C55.1476 15.7174 54.9665 16.2011 54.644 16.5578C54.3215 16.9144 53.8842 17.1147 53.4281 17.1147Z" fill="#54CA95"/>
<path d="M30.4244 57.0492C28.5439 57.0488 26.7058 56.4909 25.1424 55.4459C23.579 54.4009 22.3606 52.9158 21.6412 51.1784C20.9219 49.441 20.7338 47.5292 21.1009 45.6849C21.468 43.8406 22.3737 42.1466 23.7035 40.817C25.0333 39.4875 26.7275 38.5821 28.5719 38.2153C30.4162 37.8486 32.3279 38.037 34.0652 38.7567C35.8025 39.4764 37.2874 40.6951 38.3321 42.2587C39.3768 43.8223 39.9344 45.6605 39.9344 47.541C39.9311 50.062 38.9281 52.4788 37.1453 54.2613C35.3625 56.0438 32.9455 57.0464 30.4244 57.0492V57.0492ZM30.4244 41.5368C29.237 41.5372 28.0763 41.8896 27.0892 42.5495C26.102 43.2095 25.3327 44.1473 24.8785 45.2445C24.4244 46.3416 24.3057 47.5488 24.5376 48.7134C24.7695 49.878 25.3414 50.9477 26.1812 51.7872C27.021 52.6267 28.0908 53.1984 29.2555 53.4299C30.4201 53.6614 31.6273 53.5424 32.7243 53.0879C33.8213 52.6334 34.7589 51.8639 35.4186 50.8765C36.0782 49.8892 36.4303 48.7284 36.4303 47.541C36.4285 45.9488 35.7951 44.4225 34.6691 43.2968C33.5431 42.1712 32.0166 41.5382 30.4244 41.5368V41.5368Z" fill="#54CA95"/>
<path d="M45.8415 76.0656H15.0111C14.5603 76.0656 14.128 75.8998 13.8093 75.6046C13.4906 75.3095 13.3115 74.9092 13.3115 74.4918V67.7466C13.3165 65.4152 14.3188 63.1806 16.0992 61.5321C17.8795 59.8835 20.2927 58.9554 22.8105 58.9508H38.0438C40.5621 58.9533 42.9764 59.8809 44.757 61.5299C46.5375 63.1789 47.5388 65.4147 47.541 67.7466V74.4918C47.541 74.9092 47.362 75.3095 47.0432 75.6046C46.7245 75.8998 46.2922 76.0656 45.8415 76.0656ZM16.7107 72.918H44.1419V67.7466C44.1401 66.2494 43.4971 64.8139 42.3539 63.7551C41.2107 62.6962 39.6607 62.1004 38.0438 62.0983H22.8105C21.1933 62.1 19.6428 62.6956 18.4993 63.7545C17.3557 64.8134 16.7125 66.2491 16.7107 67.7466V72.918Z" fill="#54CA95"/>
<path d="M38.2193 76.0655H22.633C22.1782 76.0655 21.7419 75.9103 21.4203 75.6339C21.0987 75.3576 20.918 74.9828 20.918 74.592V69.9326C20.918 69.5417 21.0987 69.1669 21.4203 68.8906C21.7419 68.6142 22.1782 68.459 22.633 68.459C23.0879 68.459 23.5241 68.6142 23.8457 68.8906C24.1674 69.1669 24.3481 69.5417 24.3481 69.9326V73.1228H36.5043V69.9326C36.5043 69.5417 36.685 69.1669 37.0066 68.8906C37.3282 68.6142 37.7645 68.459 38.2193 68.459C38.6742 68.459 39.1104 68.6142 39.432 68.8906C39.7537 69.1669 39.9344 69.5417 39.9344 69.9326V74.5964C39.933 74.9864 39.7517 75.3601 39.4302 75.6355C39.1087 75.9109 38.6733 76.0655 38.2193 76.0655Z" fill="#54CA95"/>
<path d="M104.794 47.541H60.6488C60.1985 47.541 59.7666 47.3407 59.4482 46.984C59.1298 46.6274 58.9509 46.1437 58.9509 45.6394C58.9509 45.135 59.1298 44.6513 59.4482 44.2947C59.7666 43.9381 60.1985 43.7377 60.6488 43.7377H104.794C105.244 43.7377 105.676 43.9381 105.995 44.2947C106.313 44.6513 106.492 45.135 106.492 45.6394C106.492 46.1437 106.313 46.6274 105.995 46.984C105.676 47.3407 105.244 47.541 104.794 47.541Z" fill="#54CA95"/>
<path d="M104.794 60.8525H60.6488C60.1985 60.8525 59.7666 60.6521 59.4482 60.2955C59.1298 59.9389 58.9509 59.4552 58.9509 58.9508C58.9509 58.4465 59.1298 57.9628 59.4482 57.6062C59.7666 57.2495 60.1985 57.0492 60.6488 57.0492H104.794C105.244 57.0492 105.676 57.2495 105.995 57.6062C106.313 57.9628 106.492 58.4465 106.492 58.9508C106.492 59.4552 106.313 59.9389 105.995 60.2955C105.676 60.6521 105.244 60.8525 104.794 60.8525Z" fill="#54CA95"/>
<path d="M104.794 76.0656H60.6488C60.1985 76.0656 59.7666 75.8653 59.4482 75.5086C59.1298 75.152 58.9509 74.6683 58.9509 74.164C58.9509 73.6596 59.1298 73.1759 59.4482 72.8193C59.7666 72.4627 60.1985 72.2623 60.6488 72.2623H104.794C105.244 72.2623 105.676 72.4627 105.995 72.8193C106.313 73.1759 106.492 73.6596 106.492 74.164C106.492 74.6683 106.313 75.152 105.995 75.5086C105.676 75.8653 105.244 76.0656 104.794 76.0656Z" fill="#54CA95"/>
<path d="M104.766 89.3771H15.0371C14.5794 89.3771 14.1405 89.1767 13.8169 88.8201C13.4933 88.4635 13.3115 87.9798 13.3115 87.4754C13.3115 86.9711 13.4933 86.4874 13.8169 86.1308C14.1405 85.7741 14.5794 85.5738 15.0371 85.5738H104.766C105.224 85.5738 105.663 85.7741 105.986 86.1308C106.31 86.4874 106.492 86.9711 106.492 87.4754C106.492 87.9798 106.31 88.4635 105.986 88.8201C105.663 89.1767 105.224 89.3771 104.766 89.3771Z" fill="#54CA95"/>
<path d="M104.766 102.689H15.0371C14.5794 102.689 14.1405 102.588 13.8169 102.41C13.4933 102.232 13.3115 101.99 13.3115 101.738C13.3115 101.486 13.4933 101.244 13.8169 101.065C14.1405 100.887 14.5794 100.787 15.0371 100.787H104.766C105.224 100.787 105.663 100.887 105.986 101.065C106.31 101.244 106.492 101.486 106.492 101.738C106.492 101.99 106.31 102.232 105.986 102.41C105.663 102.588 105.224 102.689 104.766 102.689Z" fill="#54CA95"/>
</svg>
