<svg width="496" height="497" viewBox="0 0 496 497" fill="none" xmlns="http://www.w3.org/2000/svg">
<path d="M472 0H24C10.768 0 0 10.768 0 24V376C0 389.232 10.768 400 24 400H240V404.4C240 412.992 242.016 421.608 245.84 429.304L264 465.872V495.64L408 496.016V466.664L420.8 449.6C428.024 439.968 432 428.04 432 416V400H472C485.232 400 496 389.232 496 376V24C496 10.768 485.232 0 472 0V0ZM24 16H472C476.408 16 480 19.592 480 24V96H16V24C16 19.592 19.592 16 24 16ZM312 192C298.768 192 288 202.768 288 216V224H192V144H448V224H336V216C336 202.768 325.232 192 312 192ZM288 322.056C277.272 310.768 262.048 303.664 244.952 303.664C233.408 303.664 224.008 313.056 224 324.608C224 327.84 224.768 331.08 226.208 333.984L235.224 352H192V272H288V322.056ZM416 416C416 424.6 413.16 433.128 408 440L392 461.336V479.984L280 479.68V462.12L260.168 422.184C257.44 416.688 256 410.544 256 404.4V371.536C256 362.528 253.872 353.512 249.848 345.464L240.528 326.824C240.184 326.144 240 325.368 240 324.608C240 321.88 242.224 319.664 245.712 319.664C269.032 319.664 288 338.64 288 361.96V375.664V391.664H304V375.664V361.96V216C304 211.592 307.592 208 312 208C316.408 208 320 211.592 320 216V312V344H336V312C336 307.592 339.592 304 344 304C348.408 304 352 307.592 352 312V344H368V312C368 307.592 371.592 304 376 304C380.408 304 384 307.592 384 312V328V344H400V328C400 323.592 403.592 320 408 320C412.408 320 416 323.592 416 328V416ZM408 304C404.84 304 401.84 304.648 399.072 305.76C396.312 295.56 387.064 288 376 288C369.832 288 364.256 290.408 360 294.24C355.744 290.4 350.168 288 344 288C341.184 288 338.512 288.576 336 289.472V272H448V352H432V328C432 314.768 421.232 304 408 304ZM472 384H432V368H464V256H336V240H464V128H176V240H288V256H176V368H239.792C239.896 369.176 240 370.36 240 371.536V384H24C19.592 384 16 380.408 16 376V112H480V376C480 380.408 476.408 384 472 384Z" fill="#54CA95"/>
<path d="M80 32H32V80H80V32ZM64 64H48V48H64V64Z" fill="#54CA95"/>
<path d="M144 32H96V80H144V32ZM128 64H112V48H128V64Z" fill="#54CA95"/>
<path d="M208 32H160V80H208V32ZM192 64H176V48H192V64Z" fill="#54CA95"/>
<path d="M208 160H224V176H208V160Z" fill="#54CA95"/>
<path d="M240 160H432V176H240V160Z" fill="#54CA95"/>
<path d="M352 192H432V208H352V192Z" fill="#54CA95"/>
<path d="M208 192H272V208H208V192Z" fill="#54CA95"/>
<path d="M48 240H160V128H48V240ZM64 144H144V224H64V144Z" fill="#54CA95"/>
<path d="M96 188.688L85.656 178.344L74.344 189.656L96 211.312L141.656 165.656L130.344 154.344L96 188.688Z" fill="#54CA95"/>
<path d="M48 368H160V256H48V368ZM64 272H144V352H64V272Z" fill="#54CA95"/>
<path d="M96 316.688L85.656 306.344L74.344 317.656L96 339.312L141.656 293.656L130.344 282.344L96 316.688Z" fill="#54CA95"/>
</svg>
