<svg width="512" height="495" viewBox="0 0 512 495" fill="none" xmlns="http://www.w3.org/2000/svg">
<path d="M477.858 0H34.142C15.317 0 0 15.318 0 34.142V315.733C0 320.443 3.823 324.266 8.533 324.266H503.466C508.176 324.266 511.999 320.443 511.999 315.733V34.142C512 15.318 496.683 0 477.858 0ZM494.933 307.2H17.067V34.142C17.067 24.721 24.73 17.067 34.142 17.067H477.858C487.27 17.067 494.933 24.721 494.933 34.142V307.2Z" fill="#54CA95"/>
<path d="M503.467 307.2H8.533C3.823 307.2 0 311.023 0 315.733V358.391C0 377.216 15.317 392.533 34.142 392.533H477.858C496.683 392.533 512 377.216 512 358.391V315.733C512 311.023 508.177 307.2 503.467 307.2ZM494.933 358.392C494.933 367.813 487.27 375.467 477.858 375.467H34.142C24.73 375.467 17.067 367.813 17.067 358.392V324.267H494.934V358.392H494.933Z" fill="#54CA95"/>
<path d="M281.6 341.334H230.4C225.69 341.334 221.867 345.157 221.867 349.867C221.867 354.577 225.69 358.4 230.4 358.4H281.6C286.31 358.4 290.133 354.577 290.133 349.867C290.133 345.157 286.31 341.334 281.6 341.334Z" fill="#54CA95"/>
<path d="M469.333 34.134H42.6668C37.9568 34.134 34.1338 37.957 34.1338 42.667V315.734C34.1338 320.444 37.9568 324.267 42.6668 324.267H469.334C474.044 324.267 477.867 320.444 477.867 315.734V42.667C477.867 37.957 474.044 34.134 469.333 34.134ZM460.8 307.2H51.1998V51.2H460.8V307.2Z" fill="#54CA95"/>
<path d="M366.933 443.734H145.067C130.953 443.734 119.467 455.22 119.467 469.334C119.467 483.448 130.953 494.934 145.067 494.934H366.934C381.048 494.934 392.534 483.448 392.534 469.334C392.534 455.22 381.047 443.734 366.933 443.734ZM366.933 477.867H145.067C140.357 477.867 136.534 474.036 136.534 469.334C136.534 464.632 140.357 460.801 145.067 460.801H366.934C371.644 460.801 375.467 464.632 375.467 469.334C375.467 474.036 371.644 477.867 366.933 477.867Z" fill="#54CA95"/>
<path d="M349.867 443.734C321.553 443.734 307.2 423.638 307.2 384.001C307.2 379.291 303.377 375.468 298.667 375.468H213.334C208.624 375.468 204.801 379.291 204.801 384.001C204.801 423.638 190.448 443.734 162.134 443.734C157.424 443.734 153.601 447.557 153.601 452.267C153.601 456.977 157.424 460.8 162.134 460.8H349.867C354.577 460.8 358.4 456.977 358.4 452.267C358.4 447.557 354.577 443.734 349.867 443.734ZM203.699 443.734C214.204 432.095 220.39 414.763 221.636 392.534H290.372C291.609 414.763 297.796 432.095 308.309 443.734H203.699Z" fill="#54CA95"/>
<path d="M407.757 251.426L387.158 230.827L398.618 219.367C400.743 217.242 401.596 214.153 400.862 211.243C400.128 208.333 397.918 206.029 395.042 205.159L309.709 179.559C306.697 178.654 303.446 179.482 301.227 181.701C299 183.92 298.181 187.179 299.085 190.183L324.685 275.516C325.547 278.4 327.859 280.61 330.769 281.344C333.67 282.061 336.768 281.224 338.893 279.1L350.959 267.025L371.558 287.633C373.154 289.237 375.33 290.133 377.591 290.133C379.852 290.133 382.028 289.237 383.624 287.633L407.756 263.492C411.093 260.156 411.093 254.763 407.757 251.426ZM377.591 269.534L358.835 250.769C356.659 248.593 353.809 247.509 350.959 247.509C348.1 247.509 345.25 248.601 343.083 250.76L336.922 256.921L319.983 200.456L376.448 217.395L369.843 224C368.025 225.826 367.027 228.25 367.027 230.827C367.027 233.413 368.034 235.853 369.86 237.662L389.657 257.459L377.591 269.534Z" fill="#54CA95"/>
<path d="M358.4 68.267H119.467C114.757 68.267 110.934 72.09 110.934 76.8V119.467C110.934 124.177 114.757 128 119.467 128H358.4C363.11 128 366.933 124.177 366.933 119.467V76.8C366.933 72.09 363.11 68.267 358.4 68.267ZM349.867 110.934H128V85.334H349.867V110.934V110.934Z" fill="#54CA95"/>
<path d="M221.867 162.134H153.6C148.89 162.134 145.067 165.957 145.067 170.667V204.8C145.067 209.51 148.89 213.333 153.6 213.333H221.867C226.577 213.333 230.4 209.51 230.4 204.8V170.667C230.4 165.957 226.577 162.134 221.867 162.134ZM213.333 196.267H162.133V179.2H213.333V196.267V196.267Z" fill="#54CA95"/>
<path d="M358.4 68.267H119.467C114.757 68.267 110.934 72.09 110.934 76.8V238.933C110.934 243.643 114.757 247.466 119.467 247.466H322.612C325.317 247.466 327.851 246.195 329.456 244.027C331.069 241.86 331.564 239.061 330.787 236.475L319.984 200.456L355.952 211.251C358.538 212.028 361.337 211.533 363.495 209.92C365.662 208.316 366.934 205.773 366.934 203.076V76.8C366.933 72.09 363.11 68.267 358.4 68.267ZM349.867 191.608L309.7 179.559C306.688 178.654 303.437 179.482 301.218 181.701C298.991 183.928 298.172 187.179 299.076 190.192L311.142 230.401H128V85.334H349.867V191.608V191.608Z" fill="#54CA95"/>
</svg>
